<?xml version="1.0" encoding="UTF-8" standalone="no"?>
<!-- Created with Inkscape (http://www.inkscape.org/) -->

<svg
   xmlns:dc="http://purl.org/dc/elements/1.1/"
   xmlns:cc="http://creativecommons.org/ns#"
   xmlns:rdf="http://www.w3.org/1999/02/22-rdf-syntax-ns#"
   xmlns:svg="http://www.w3.org/2000/svg"
   xmlns="http://www.w3.org/2000/svg"
   xmlns:xlink="http://www.w3.org/1999/xlink"
   xmlns:sodipodi="http://sodipodi.sourceforge.net/DTD/sodipodi-0.dtd"
   xmlns:inkscape="http://www.inkscape.org/namespaces/inkscape"
   width="16px"
   height="16px"
   id="svg39"
   version="1.1"
   inkscape:version="0.48+devel r"
   sodipodi:docname="drawing.svg">
  <defs
     id="defs41">
    <linearGradient
       inkscape:collect="always"
       xlink:href="#linearGradient2832"
       id="linearGradient2831"
       x1="13.804608"
       y1="14.352831"
       x2="130.86633"
       y2="132.01488"
       gradientTransform="matrix(0.12125727,0,0,0.1214225,-1.0026324,-1.0026281)"
       gradientUnits="userSpaceOnUse" />
    <linearGradient
       id="linearGradient2832">
      <stop
         style="stop-color:#8c8c8c;stop-opacity:1.0000000;"
         offset="0.0000000"
         id="stop2833" />
      <stop
         style="stop-color:#edeae8;stop-opacity:1.0000000;"
         offset="0.44457227"
         id="stop2835" />
      <stop
         style="stop-color:#888888;stop-opacity:1.0000000;"
         offset="0.61552495"
         id="stop3457" />
      <stop
         style="stop-color:#e3e2e3;stop-opacity:1.0000000;"
         offset="1.0000000"
         id="stop2834" />
    </linearGradient>
  </defs>
  <sodipodi:namedview
     id="base"
     pagecolor="#ffffff"
     bordercolor="#666666"
     borderopacity="1.0"
     inkscape:pageopacity="0.0"
     inkscape:pageshadow="2"
     inkscape:zoom="22.197802"
     inkscape:cx="8"
     inkscape:cy="8"
     inkscape:current-layer="layer1"
     showgrid="true"
     inkscape:grid-bbox="true"
     inkscape:document-units="px"
     inkscape:window-width="1366"
     inkscape:window-height="720"
     inkscape:window-x="0"
     inkscape:window-y="22"
     inkscape:window-maximized="0" />
  <metadata
     id="metadata44">
    <rdf:RDF>
      <cc:Work
         rdf:about="">
        <dc:format>image/svg+xml</dc:format>
        <dc:type
           rdf:resource="http://purl.org/dc/dcmitype/StillImage" />
        <dc:title></dc:title>
      </cc:Work>
    </rdf:RDF>
  </metadata>
  <g
     id="layer1"
     inkscape:label="Layer 1"
     inkscape:groupmode="layer">
    <path
       style="fill:#000000;fill-opacity:1;fill-rule:evenodd;stroke:none"
       d="M 8.2030106,0.1601717 C 6.901561,0.10206052 4.7987362,0.79596396 3.9971199,1.3788876 3.7136086,1.7220231 4.4897254,3.2240478 4.465469,3.4219053 4.1805218,3.5551081 3.4996187,4.3492076 3.4230912,4.5596799 3.3465733,4.7701619 1.7942627,3.8488731 1.4190745,3.9918479 0.73263009,5.0813507 0.14695999,7.2466235 0.23454115,8.2402573 0.38216091,8.6615489 2.0840862,8.6321368 2.1270287,8.8701613 c -0.031899,0.3154484 0.3705624,1.4057027 0.5107906,1.5795447 0.1402378,0.173833 -1.3086485,1.000332 -1.3441994,1.352536 0.6121912,1.158532 2.1629985,2.582873 3.0635773,2.992774 0.4359881,0.07652 1.2059082,-1.43631 1.4323973,-1.357451 0.2566433,0.182689 1.4315395,0.434909 1.6503189,0.396669 0.2187698,-0.03826 0.1859943,1.740705 0.5732866,2.005954 1.3549736,0.05773 3.244203,-0.713563 4.049781,-1.290897 0.285843,-0.34115 -0.676422,-1.693425 -0.494524,-1.850875 0.285853,-0.131217 1.091276,-0.997787 1.16924,-1.207729 0.07796,-0.209933 1.520768,0.69504 1.939882,0.539258 C 15.403477,10.922739 15.853227,8.7702833 15.76261,7.776929 15.61369,7.3561 13.950563,7.4300062 13.906898,7.1921166 13.937832,6.8765719 13.571289,5.7871654 13.43053,5.6137667 13.289772,5.4403775 14.718797,4.6526 14.787933,4.2588509 14.190245,3.1229074 12.662682,1.5310946 11.764224,1.1165006 11.328631,1.0376699 10.512867,2.5859909 10.286783,2.5059458 10.031074,2.3219174 8.9348935,2.1017985 8.7159309,2.1388913 8.4969587,2.1759938 8.5351117,0.43657085 8.2030106,0.1601717 z m 0.013492,6.1698177 c 1.0303315,0 1.63171,0.6891235 1.63171,1.7307689 0,1.0416358 -0.640524,1.6524787 -1.6708459,1.6524787 -1.0303219,0 -1.6708457,-0.6499789 -1.6708457,-1.6916242 0,-1.0416454 0.6796597,-1.6916234 1.7099816,-1.6916234 z"
       id="path916"
       sodipodi:nodetypes="cccccccccccccccccccccccccccccc"
       inkscape:connector-curvature="0" />
    <path
       style="fill:url(#linearGradient2831);fill-opacity:1;fill-rule:evenodd;stroke:none"
       d="M 8.0273444,0.43386495 C 6.7259046,0.37575377 5.0145158,0.91308466 4.2129091,1.4960083 3.9293979,1.8391438 4.822932,3.302023 4.6421127,3.4607446 4.3571656,3.5939377 3.4805636,4.5446097 3.4040361,4.7550821 3.3275182,4.9655641 1.8926442,4.0834209 1.517456,4.2263956 0.83103087,5.3158984 0.36278773,7.1288902 0.45035926,8.122524 0.59798866,8.5438157 2.2998947,8.5144035 2.3428372,8.7524281 c -0.031899,0.3154483 0.3314169,1.5622749 0.4716451,1.7361079 0.1402281,0.173832 -1.3086389,0.961195 -1.3441898,1.313399 0.6121816,1.158542 1.9281349,2.387165 2.8286944,2.797066 0.4359881,0.07652 1.2450442,-1.43631 1.4715333,-1.35745 0.2566432,0.182688 1.5098112,0.474054 1.728581,0.435814 0.2187698,-0.03826 0.1468585,1.623278 0.5341411,1.888517 1.3549639,0.05773 2.9310397,-0.439563 3.7366077,-1.016897 0.285843,-0.341151 -0.598131,-1.810853 -0.416223,-1.968302 0.285843,-0.131208 1.169538,-1.076069 1.247502,-1.286011 0.07796,-0.209933 1.481613,0.655904 1.900727,0.500112 C 15.227745,10.687588 15.638349,8.92654 15.547732,7.9331953 15.398811,7.5123662 13.696568,7.5471269 13.652893,7.3092373 13.683828,6.9936926 13.317294,5.7477136 13.176535,5.5743245 13.035777,5.4009257 14.425646,4.6522937 14.494782,4.2585447 13.897095,3.1226011 12.643541,1.8439238 11.745092,1.4293299 11.309499,1.3504991 10.493745,2.8596745 10.267661,2.7796391 10.011962,2.5956107 8.7592177,2.2972006 8.5402551,2.3342935 8.3212926,2.371396 8.3594455,0.71025446 8.0273444,0.43386495 z M 8.1582247,6.1339747 c 1.0303122,0 1.8665353,0.8456864 1.8665353,1.8873318 0,1.0416454 -0.8362231,1.8873405 -1.8665353,1.8873405 -1.0303123,0 -1.8665349,-0.8456951 -1.8665349,-1.8873405 0,-1.0416358 0.8362226,-1.8873318 1.8665349,-1.8873318 z"
       id="path2813"
       inkscape:connector-curvature="0" />
  </g>
</svg>
